#!OML:ASF E:\emotionWalksFemale\Project 1\Capture day 1\Session 1\Female1.ASF
:FULLY-SPECIFIED
:DEGREES
3352
root -7.45678 15.7072 16.4927 -720.373 -2.34329 -715.102
lowerback 6.3287 0.626696 8.13998
upperback -5.24327 2.01993 4.00598
thorax -9.05083 0.61135 -0.565915
lowerneck -13.5632 -2.28741 -3.49447
upperneck 29.2878 -3.73834 4.22415
head 12.0018 -1.52234 1.65691
rclavicle -5.1684e-015 4.13472e-014
rhumerus 34.402 9.84508 -41.8884
rradius 27.0372
rwrist 24.1648
rhand -1.00458 -44.4599
rfingers 7.12502
rthumb 24.6278 -432.895
lclavicle -5.1684e-015 4.13472e-014
lhumerus 23.5085 -10.9509 49.0512
lradius 29.5938
lwrist -25.3731
lhand -6.15042 -44.9892
lfingers 7.12502
lthumb 19.6878 -15.9662
rfemur 18.7786 20.1347 27.3218
rtibia 1.27222e-014
rfoot -20.153 -34.014
rtoes 15.6514
lfemur -30.8717 -32.3944 -4.54775
ltibia 26.5369
lfoot -44.9015 28.2667
ltoes 19.8064
3353
root -7.44408 15.6888 16.575 -720.561 -2.76426 -715.564
lowerback 6.4117 0.629021 8.17562
upperback -5.18624 2.0354 4.05858
thorax -9.03755 0.619742 -0.533265
lowerneck -13.4163 -2.22895 -3.54901
upperneck 29.1887 -3.65579 4.27676
head 11.9302 -1.48855 1.6976
rclavicle -1.74931e-014 -1.90833e-014
rhumerus 34.5949 9.5963 -42.5962
rradius 26.7722
rwrist 24.8234
rhand -1.21651 -44.4208
rfingers 7.12502
rthumb 24.4247 -432.884
lclavicle -1.74931e-014 -1.90833e-014
lhumerus 23.3059 -10.5869 49.1744
lradius 29.6241
lwrist -25.5899
lhand -6.27298 -45.1172
lfingers 7.12502
lthumb 19.5699 -16.0822
rfemur 19.205 19.7884 27.8132
rtibia -5.40694e-014
rfoot -19.8114 -33.5953
rtoes 15.8394
lfemur -30.7602 -32.5887 -4.36517
ltibia 26.5893
lfoot -45.1611 28.5005
ltoes 19.9638
3354
root -7.43495 15.6706 16.659 -720.85 -3.14415 -716.144
lowerback 6.66594 0.639968 8.2789
upperback -5.1072 2.09069 4.13478
thorax -9.09872 0.641966 -0.520698
lowerneck -13.4547 -2.16179 -3.14603
upperneck 29.2592 -3.52287 3.80315
head 11.9415 -1.44425 1.46919
rclavicle -3.18055e-015 -1.27222e-014
rhumerus 34.4177 9.5437 -42.8068
rradius 26.9284
rwrist 25.1998
rhand -0.998515 -44.0657
rfingers 7.12502
rthumb 24.6336 -432.5
lclavicle -3.18055e-015 -1.27222e-014
lhumerus 23.2972 -10.6 49.0717
lradius 29.6177
lwrist -25.3612
lhand -6.45931 -45.1307
lfingers 7.12502
lthumb 19.3908 -16.0775
rfemur 19.7192 19.3811 28.4535
rtibia -6.36111e-015
rfoot -19.1764 -33.2744
rtoes 16.6137
lfemur -30.4928 -32.7839 -4.10115
ltibia 26.6036
lfoot -45.6185 28.7037
ltoes 20.1359
3355
root -7.41804 15.6575 16.7329 -720.826 -3.33143 -716.46
lowerback 6.75879 0.669274 8.31365
upperback -5.21228 2.14357 4.00759
thorax -9.26028 0.653013 -0.683208
lowerneck -13.1954 -2.18644 -2.81343
upperneck 29.0585 -3.5974 3.64699
head 11.802 -1.46623 1.34249
rclavicle -8.74653e-015 -5.725e-014
rhumerus 34.2111 9.61613 -42.8096
rradius 26.9514
rwrist 25.1792
rhand -0.532235 -43.733
rfingers 7.12502
rthumb 25.0805 -432.106
lclavicle -8.74653e-015 -5.725e-014
lhumerus 23.3791 -11.0855 48.6734
lradius 29.6788
lwrist -24.9428
lhand -6.29338 -45.1609
lfingers 7.12502
lthumb 19.5503 -16.1238
rfemur 19.8672 18.8474 28.6405
rtibia 7.95139e-015
rfoot -18.7268 -32.8653
rtoes 16.5989
lfemur -30.6021 -32.7236 -4.04863
ltibia 26.5657
lfoot -45.4724 29.0367
ltoes 19.2404
3356
root -7.39432 15.6451 16.8088 -720.625 -3.54738 -716.577
lowerback 6.82018 0.736944 8.26984
upperback -5.49011 2.24072 3.7703
thorax -9.58866 0.676951 -0.924742
lowerneck -12.8542 -2.2385 -2.44703
upperneck 28.9935 -3.72897 3.49854
head 11.7009 -1.50954 1.20777
rclavicle -1.90833e-014 6.67916e-014
rhumerus 33.8754 9.85077 -42.8349
rradius 26.9134
rwrist 25.0349
rhand -0.401799 -43.7676
rfingers 7.12502
rthumb 25.2055 -432.123
lclavicle -1.90833e-014 6.67916e-014
lhumerus 23.408 -11.3865 48.5971
lradius 29.49
lwrist -25.2475
lhand -6.21243 -45.2582
lfingers 7.12502
lthumb 19.6281 -16.2291
rfemur 19.8611 18.3768 28.5524
rtibia 1.59028e-015
rfoot -18.1879 -32.2843
rtoes 14.372
lfemur -30.7984 -32.3575 -4.2606
ltibia 26.4393
lfoot -44.5345 29.6681
ltoes 17.2821
3357
root -7.3698 15.6341 16.8895 -720.488 -3.83501 -716.677
lowerback 6.17092 0.729613 7.97388
upperback -5.20337 2.10107 3.8208
thorax -8.90175 0.659006 -0.681123
lowerneck -12.9868 -2.20258 -2.53262
upperneck 28.6388 -3.58768 3.33615
head 11.5823 -1.47815 1.17773
rclavicle 1.35174e-014 4.13472e-014
rhumerus 34.4596 10.2935 -42.0408
rradius 27.2159
rwrist 24.3237
rhand -0.329288 -44.056
rfingers 7.12502
rthumb 25.2749 -432.402
lclavicle 1.35174e-014 4.13472e-014
lhumerus 23.5943 -10.4296 48.9454
lradius 29.2768
lwrist -25.8751
lhand -6.29656 -45.1614
lfingers 7.12502
lthumb 19.5472 -16.124
rfemur 19.9451 17.9671 28.4776
rtibia 1.90833e-014
rfoot -16.8956 -32.6081
rtoes 13.3045
lfemur -30.9458 -32.4044 -4.32676
ltibia 26.2641
lfoot -44.3309 29.5408
ltoes 19.2972
3358
root -7.34418 15.6232 16.9714 -720.399 -4.085 -716.718
lowerback 6.54644 0.690141 7.62929
upperback -5.57795 2.0878 3.8342
thorax -9.54885 0.648561 -0.475616
lowerneck -12.715 -2.10928 -2.71917
upperneck 28.8225 -3.3772 3.19447
head 11.5912 -1.42416 1.19
rclavicle 9.93923e-015 -4.29375e-014
rhumerus 34.2197 11.6146 -41.0175
rradius 27.7122
rwrist 23.1607
rhand -0.403173 -44.1009
rfingers 7.12502
rthumb 25.2041 -432.457
lclavicle 9.93923e-015 -4.29375e-014
lhumerus 22.8179 -10.6152 49.0914
lradius 29.5461
lwrist -25.7155
lhand -6.14484 -44.9709
lfingers 7.12502
lthumb 19.6931 -15.9484
rfemur 20.094 17.5204 28.3301
rtibia -3.18055e-015
rfoot -16.2207 -32.6338
rtoes 12.5656
lfemur -31.1104 -32.9592 -4.30779
ltibia 26.0875
lfoot -44.9473 29.3342
ltoes 22.1097
